# xmcd
#
# Track frame offsets:
#	150
#	19974
#	35007
#	52617
#	70135
#	87874
#	99900
#	118313
#	132326
#	152330
#	167853
#	186619
#	206270
#	222479
#	240837
#	258921
#
# Disc length: 3660 seconds
#
# Revision: 0
# Processed by: cddbd v1.5.1PL2 Copyright (c) Steve Scherf et al.
# Submitted via: EasyCDDAExtractor 4.5.0.1
#
DISCID=d70e4a10
DTITLE=CAMILO SESTO - UN AMOR NO MUERE ASI COMO ASI
DYEAR=2005
DGENRE=Ballad
TTITLE0=Ayudadme
TTITLE1=Isabel
TTITLE2=Madre
TTITLE3=Nunca más
TTITLE4=Qué más te da
TTITLE5=¿Que será de tí?
TTITLE6=Quererte a ti
TTITLE7=Querido amor
TTITLE8=Si me dejas ahora
TTITLE9=Es mi buen amor
TTITLE10=Solo el cielo y tú
TTITLE11=Sólo mía
TTITLE12=Tarde o temprano
TTITLE13=Terciopelo y piedra
TTITLE14=Un amor no muere así como así
TTITLE15=Un sueño de menos
EXTD=
EXTT0=
EXTT1=
EXTT2=
EXTT3=
EXTT4=
EXTT5=
EXTT6=
EXTT7=
EXTT8=
EXTT9=
EXTT10=
EXTT11=
EXTT12=
EXTT13=
EXTT14=
EXTT15=
PLAYORDER=
